# Blender v2.82 (sub 7) OBJ File: 'mycamaroLow.blend'
# www.blender.org
mtllib camaro_doors_low.mtl
o Pueratas_Plano.008
v -1.754200 1.099323 -1.543174
v -1.713851 1.149582 -1.477226
v -1.713851 1.153124 -1.554398
v -1.754179 1.102864 -1.595258
v -1.636006 1.203223 -1.440259
v -1.621568 1.213172 -1.433403
v -1.621568 1.216714 -1.516176
v -1.636006 1.206765 -1.522156
v -1.847703 0.859181 -1.699859
v -1.848505 0.857178 -1.614297
v -1.865162 0.483833 -1.735020
v -1.867076 0.484853 -1.649128
v -1.789114 0.161757 -1.719861
v -1.791028 0.162777 -1.634146
v -1.917904 0.512200 0.765165
v -1.901271 0.503067 0.018848
v -1.825223 0.180991 0.018848
v -1.841855 0.226427 0.762373
v -1.883217 0.493450 -0.791298
v -1.807168 0.171374 -0.791298
v -1.869803 0.804011 0.765240
v -1.862833 0.821409 0.018849
v -1.855268 0.840295 -0.791353
v -1.754766 1.005285 0.765240
v -1.754581 1.036058 0.018849
v -1.754380 1.069461 -0.791353
v -1.636006 1.109186 0.767696
v -1.621568 1.119135 0.767812
v -1.621568 1.149907 0.051498
v -1.636006 1.139958 0.050024
v -1.621568 1.183310 -0.726055
v -1.636006 1.173361 -0.729004
v -1.713851 1.055545 0.767069
v -1.713851 1.086317 0.042071
v -1.713851 1.119720 -0.744910
v -1.868247 0.485476 -1.596615
v -1.792198 0.163400 -1.581742
v -1.848995 0.855954 -1.561986
v -1.754213 1.097158 -1.511332
v -1.621568 1.211007 -1.382798
v -1.636006 1.201058 -1.390190
v -1.713851 1.147417 -1.430045
v -1.671848 -0.026883 -1.563426
v -1.686818 -0.016536 -0.791267
v -1.684245 -0.004057 0.018802
v -1.697710 0.062286 0.760851
v -1.668763 -0.029014 -1.701618
v -1.670678 -0.027691 -1.615858
v -1.843277 0.230312 0.825939
v -1.711433 0.067958 0.819996
v -1.754782 1.002655 0.829052
v -1.713851 1.052914 0.829052
v -1.636006 1.106555 0.829052
v -1.621568 1.116504 0.829052
v -1.870399 0.802524 0.829052
v -1.919326 0.512980 0.828970
v 1.754200 1.099323 -1.543174
v 1.754179 1.102864 -1.595258
v 1.713851 1.153124 -1.554398
v 1.713851 1.149582 -1.477226
v 1.636006 1.203223 -1.440259
v 1.636006 1.206765 -1.522156
v 1.621568 1.216714 -1.516176
v 1.621568 1.213172 -1.433403
v 1.848505 0.857178 -1.614297
v 1.847703 0.859181 -1.699859
v 1.867076 0.484853 -1.649128
v 1.865162 0.483833 -1.735020
v 1.791028 0.162777 -1.634146
v 1.789114 0.161757 -1.719861
v 1.917904 0.512200 0.765165
v 1.841855 0.226427 0.762373
v 1.825223 0.180991 0.018848
v 1.901271 0.503067 0.018848
v 1.807168 0.171374 -0.791298
v 1.883217 0.493450 -0.791298
v 1.869803 0.804011 0.765240
v 1.862833 0.821409 0.018849
v 1.855268 0.840295 -0.791353
v 1.754766 1.005285 0.765240
v 1.754581 1.036058 0.018849
v 1.754380 1.069461 -0.791353
v 1.636006 1.109186 0.767696
v 1.636006 1.139958 0.050024
v 1.621568 1.149907 0.051498
v 1.621568 1.119135 0.767812
v 1.636006 1.173361 -0.729004
v 1.621568 1.183310 -0.726055
v 1.713851 1.086317 0.042071
v 1.713851 1.055545 0.767069
v 1.713851 1.119720 -0.744910
v 1.792198 0.163400 -1.581742
v 1.868247 0.485476 -1.596615
v 1.848995 0.855954 -1.561986
v 1.754213 1.097158 -1.511332
v 1.636006 1.201058 -1.390190
v 1.621568 1.211007 -1.382798
v 1.713851 1.147417 -1.430045
v 1.686818 -0.016536 -0.791267
v 1.671848 -0.026883 -1.563426
v 1.684245 -0.004057 0.018802
v 1.697710 0.062286 0.760851
v 1.670678 -0.027691 -1.615858
v 1.668763 -0.029014 -1.701618
v 1.843277 0.230312 0.825939
v 1.711433 0.067958 0.819996
v 1.754782 1.002655 0.829052
v 1.713851 1.052914 0.829052
v 1.636006 1.106555 0.829052
v 1.621568 1.116504 0.829052
v 1.870399 0.802524 0.829052
v 1.919326 0.512980 0.828970
vt -0.309292 0.111499
vt -0.261020 0.064593
vt -0.317342 0.062407
vt -0.347315 0.109295
vt -0.233240 -0.004067
vt -0.228093 -0.016798
vt -0.288481 -0.018985
vt -0.292992 -0.006248
vt -0.422685 0.300019
vt -0.360281 0.301315
vt -0.447581 0.574066
vt -0.384944 0.573218
vt -0.437273 0.815370
vt -0.374769 0.814512
vt 1.375886 0.552909
vt 0.831695 0.558876
vt 0.830416 0.799866
vt 1.372471 0.768574
vt 0.240809 0.566279
vt 0.239966 0.807802
vt 1.375402 0.337247
vt 0.831083 0.325140
vt 0.240113 0.312422
vt 1.374965 0.168196
vt 0.830499 0.149847
vt 0.239458 0.129808
vt 1.377540 0.052009
vt 1.377758 0.039225
vt 0.855236 0.021044
vt 0.854028 0.033818
vt 0.288027 0.001189
vt 0.285740 0.013954
vt 1.376369 0.120938
vt 0.847506 0.102695
vt 0.273409 0.082778
vt -0.346648 0.572701
vt -0.336555 0.813989
vt -0.322121 0.302110
vt -0.286038 0.112838
vt -0.191171 -0.015480
vt -0.196703 -0.002747
vt -0.226574 0.065913
vt -0.324537 0.978230
vt 0.238577 0.970515
vt 0.829111 0.969340
vt 1.370775 0.927956
vt -0.425315 0.979924
vt -0.362776 0.978873
vt 1.418858 0.765841
vt 1.414209 0.918405
vt 1.421510 0.169753
vt 1.421578 0.122493
vt 1.422294 0.053563
vt 1.422427 0.040778
vt 1.421936 0.338278
vt 1.422427 0.552394
vt 1.170406 0.118213
vt 1.203306 0.116030
vt 1.177372 0.069591
vt 1.128638 0.071756
vt 1.104601 0.003753
vt 1.156302 0.001592
vt 1.152398 -0.011022
vt 1.100147 -0.008856
vt 1.214527 0.306214
vt 1.268523 0.304930
vt 1.235869 0.575516
vt 1.290067 0.576356
vt 1.227067 0.814504
vt 1.281150 0.815354
vt -0.287696 0.555420
vt -0.284740 0.769019
vt 0.184271 0.800008
vt 0.183162 0.561325
vt 0.695161 0.807864
vt 0.694431 0.568651
vt -0.287278 0.341825
vt 0.183688 0.329828
vt 0.695031 0.317221
vt -0.286901 0.174396
vt 0.184190 0.156212
vt 0.695596 0.136354
vt -0.289131 0.059327
vt 0.163829 0.041295
vt 0.162783 0.028645
vt -0.289320 0.046667
vt 0.655549 0.021608
vt 0.653570 0.008965
vt 0.169474 0.109512
vt -0.288116 0.127592
vt 0.666219 0.089773
vt 1.194002 0.813986
vt 1.202734 0.575006
vt 1.181509 0.307002
vt 1.150286 0.119540
vt 1.072987 0.005061
vt 1.068200 -0.007549
vt 1.098834 0.073065
vt 0.696365 0.969020
vt 1.183605 0.976656
vt 0.185402 0.967860
vt -0.283272 0.926874
vt 1.216691 0.977293
vt 1.270804 0.978334
vt -0.324877 0.766313
vt -0.320854 0.917414
vt -0.327172 0.175938
vt -0.327231 0.129132
vt -0.327850 0.060867
vt -0.327965 0.048206
vt -0.327541 0.342846
vt -0.327965 0.554910
vn -0.8010 0.5978 0.0326
vn -0.7974 0.6026 0.0329
vn -0.7963 0.6041 0.0330
vn -0.5783 0.8150 0.0357
vn -0.5778 0.8154 0.0350
vn -0.5776 0.8156 0.0351
vn -0.5776 0.8156 0.0353
vn -0.9336 0.3581 0.0087
vn -0.9338 0.3578 0.0088
vn -0.9321 0.3620 0.0088
vn -0.9986 0.0510 -0.0155
vn -0.9986 0.0496 -0.0155
vn -0.9985 0.0521 -0.0152
vn -0.9729 -0.2306 -0.0190
vn -0.9700 -0.2427 -0.0128
vn -0.9731 -0.2298 -0.0190
vn -0.9730 -0.2299 -0.0175
vn -0.9730 -0.2299 -0.0174
vn -0.9900 0.1404 -0.0149
vn -0.9949 0.0993 -0.0152
vn -0.8810 0.4730 0.0110
vn -0.9046 0.4263 0.0094
vn -0.5678 0.8224 0.0352
vn -0.5678 0.8224 0.0353
vn -0.5695 0.8212 0.0352
vn -0.5695 0.8212 0.0351
vn -0.5751 0.8174 0.0340
vn -0.5730 0.8188 0.0346
vn -0.7773 0.6286 0.0262
vn -0.7854 0.6184 0.0257
vn -0.7797 0.6256 0.0260
vn -0.7923 0.6096 0.0242
vn -0.7872 0.6162 0.0254
vn -0.9729 -0.2304 -0.0175
vn -0.9730 -0.2304 -0.0174
vn -0.9977 0.0663 -0.0131
vn -0.9235 0.3834 0.0072
vn -0.5784 0.8150 0.0348
vn -0.5771 0.8159 0.0347
vn -0.7934 0.6082 0.0239
vn -0.8434 -0.5372 -0.0099
vn -0.8441 -0.5361 -0.0107
vn -0.8440 -0.5362 -0.0107
vn -0.8190 -0.5738 0.0000
vn -0.7741 -0.6322 0.0319
vn -0.8449 -0.5349 -0.0116
vn -0.8450 -0.5346 -0.0116
vn -0.7635 -0.6444 -0.0440
vn -0.7754 0.6309 0.0263
vn -0.5672 0.8229 0.0352
vn -0.5672 0.8229 0.0353
vn -0.8670 0.4982 0.0119
vn -0.9862 0.1646 -0.0147
vn -0.9660 -0.2583 -0.0121
vn -0.9985 0.0523 -0.0155
vn -0.9320 0.3623 0.0090
vn -0.8021 0.5963 0.0325
vn -0.5756 0.8170 0.0339
vn -0.5791 0.8145 0.0363
vn -0.5672 0.8229 0.0351
vn -0.5678 0.8224 0.0351
vn -0.5709 0.8203 0.0348
vn -0.5696 0.8212 0.0350
vn -0.5779 0.8153 0.0363
vn 0.8010 0.5977 0.0326
vn 0.7963 0.6041 0.0330
vn 0.7974 0.6026 0.0329
vn 0.5783 0.8150 0.0357
vn 0.5775 0.8156 0.0352
vn 0.5776 0.8156 0.0351
vn 0.5777 0.8155 0.0350
vn 0.9336 0.3581 0.0087
vn 0.9321 0.3620 0.0088
vn 0.9338 0.3578 0.0088
vn 0.9986 0.0510 -0.0155
vn 0.9985 0.0521 -0.0152
vn 0.9986 0.0496 -0.0155
vn 0.9729 -0.2306 -0.0190
vn 0.9700 -0.2427 -0.0128
vn 0.9731 -0.2298 -0.0190
vn 0.9730 -0.2299 -0.0174
vn 0.9730 -0.2299 -0.0175
vn 0.9900 0.1404 -0.0149
vn 0.9949 0.0993 -0.0152
vn 0.8810 0.4730 0.0110
vn 0.9046 0.4263 0.0094
vn 0.5678 0.8224 0.0352
vn 0.5695 0.8212 0.0351
vn 0.5695 0.8212 0.0352
vn 0.5678 0.8224 0.0353
vn 0.5730 0.8188 0.0346
vn 0.5751 0.8174 0.0341
vn 0.7773 0.6286 0.0262
vn 0.7797 0.6256 0.0260
vn 0.7854 0.6184 0.0257
vn 0.7872 0.6161 0.0254
vn 0.7923 0.6097 0.0242
vn 0.9730 -0.2304 -0.0174
vn 0.9729 -0.2304 -0.0175
vn 0.9977 0.0663 -0.0131
vn 0.9235 0.3834 0.0072
vn 0.5771 0.8159 0.0347
vn 0.5783 0.8151 0.0348
vn 0.7934 0.6082 0.0239
vn 0.8434 -0.5372 -0.0099
vn 0.8440 -0.5362 -0.0107
vn 0.8441 -0.5361 -0.0107
vn 0.8190 -0.5738 0.0000
vn 0.7741 -0.6322 0.0319
vn 0.8449 -0.5349 -0.0116
vn 0.8450 -0.5346 -0.0116
vn 0.7635 -0.6444 -0.0440
vn 0.7754 0.6309 0.0263
vn 0.5672 0.8229 0.0352
vn 0.5672 0.8229 0.0353
vn 0.8670 0.4982 0.0119
vn 0.9862 0.1646 -0.0147
vn 0.9660 -0.2583 -0.0121
vn 0.9985 0.0523 -0.0155
vn 0.9320 0.3623 0.0090
vn 0.8021 0.5963 0.0325
vn 0.5756 0.8170 0.0339
vn 0.5791 0.8145 0.0363
vn 0.5672 0.8229 0.0351
vn 0.5678 0.8224 0.0351
vn 0.5709 0.8203 0.0348
vn 0.5696 0.8212 0.0350
vn 0.5779 0.8153 0.0363
usemtl Material.001
s 1
f 1/1/1 2/2/2 3/3/3 4/4/3
f 5/5/4 6/6/5 7/7/6 8/8/7
f 1/1/8 4/4/9 9/9/9 10/10/10
f 10/10/11 9/9/12 11/11/12 12/12/13
f 12/12/14 11/11/14 13/13/14 14/14/14
f 15/15/15 16/16/15 17/17/15 18/18/15
f 16/16/16 19/19/17 20/20/18 17/17/16
f 21/21/19 22/22/19 16/16/19 15/15/19
f 22/22/20 23/23/20 19/19/20 16/16/20
f 24/24/21 25/25/21 22/22/21 21/21/21
f 25/25/22 26/26/22 23/23/22 22/22/22
f 27/27/23 28/28/24 29/29/25 30/30/26
f 30/30/26 29/29/25 31/31/27 32/32/28
f 24/24/29 33/33/29 34/34/30 25/25/31
f 25/25/31 34/34/30 35/35/32 26/26/33
f 19/19/17 36/36/34 37/37/35 20/20/18
f 23/23/36 38/38/36 36/36/36 19/19/36
f 26/26/37 39/39/37 38/38/37 23/23/37
f 32/32/28 31/31/27 40/40/38 41/41/39
f 26/26/33 35/35/32 42/42/40 39/39/40
f 20/20/41 37/37/42 43/43/43 44/44/41
f 17/17/44 20/20/44 44/44/44 45/45/44
f 18/18/45 17/17/45 45/45/45 46/46/45
f 14/14/46 13/13/47 47/47/47 48/48/46
f 49/49/48 18/18/48 46/46/48 50/50/48
f 51/51/49 52/52/49 33/33/29 24/24/29
f 53/53/50 54/54/51 28/28/24 27/27/23
f 51/51/52 24/24/52 21/21/52 55/55/52
f 55/55/53 21/21/53 15/15/53 56/56/53
f 56/56/54 15/15/54 18/18/54 49/49/54
f 37/37/42 14/14/46 48/48/46 43/43/43
f 36/36/34 12/12/14 14/14/14 37/37/35
f 38/38/55 10/10/11 12/12/13 36/36/55
f 39/39/56 1/1/8 10/10/10 38/38/56
f 41/41/39 40/40/38 6/6/5 5/5/4
f 39/39/57 42/42/57 2/2/2 1/1/1
f 42/42/58 41/41/39 5/5/4 2/2/59
f 52/52/60 53/53/50 27/27/23 33/33/61
f 35/35/62 32/32/28 41/41/39 42/42/58
f 34/34/63 30/30/26 32/32/28 35/35/62
f 33/33/61 27/27/23 30/30/26 34/34/63
f 2/2/59 5/5/4 8/8/7 3/3/64
f 57/57/65 58/58/66 59/59/66 60/60/67
f 61/61/68 62/62/69 63/63/70 64/64/71
f 57/57/72 65/65/73 66/66/74 58/58/74
f 65/65/75 67/67/76 68/68/77 66/66/77
f 67/67/78 69/69/78 70/70/78 68/68/78
f 71/71/79 72/72/79 73/73/79 74/74/79
f 74/74/80 73/73/80 75/75/81 76/76/82
f 77/77/83 71/71/83 74/74/83 78/78/83
f 78/78/84 74/74/84 76/76/84 79/79/84
f 80/80/85 77/77/85 78/78/85 81/81/85
f 81/81/86 78/78/86 79/79/86 82/82/86
f 83/83/87 84/84/88 85/85/89 86/86/90
f 84/84/88 87/87/91 88/88/92 85/85/89
f 80/80/93 81/81/94 89/89/95 90/90/93
f 81/81/94 82/82/96 91/91/97 89/89/95
f 76/76/82 75/75/81 92/92/98 93/93/99
f 79/79/100 76/76/100 93/93/100 94/94/100
f 82/82/101 79/79/101 94/94/101 95/95/101
f 87/87/91 96/96/102 97/97/103 88/88/92
f 82/82/96 95/95/104 98/98/104 91/91/97
f 75/75/105 99/99/105 100/100/106 92/92/107
f 73/73/108 101/101/108 99/99/108 75/75/108
f 72/72/109 102/102/109 101/101/109 73/73/109
f 69/69/110 103/103/110 104/104/111 70/70/111
f 105/105/112 106/106/112 102/102/112 72/72/112
f 107/107/113 80/80/93 90/90/93 108/108/113
f 109/109/114 83/83/87 86/86/90 110/110/115
f 107/107/116 111/111/116 77/77/116 80/80/116
f 111/111/117 112/112/117 71/71/117 77/77/117
f 112/112/118 105/105/118 72/72/118 71/71/118
f 92/92/107 100/100/106 103/103/110 69/69/110
f 93/93/99 92/92/98 69/69/78 67/67/78
f 94/94/119 93/93/119 67/67/76 65/65/75
f 95/95/120 94/94/120 65/65/73 57/57/72
f 96/96/102 61/61/68 64/64/71 97/97/103
f 95/95/121 57/57/65 60/60/67 98/98/121
f 98/98/122 60/60/123 61/61/68 96/96/102
f 108/108/124 90/90/125 83/83/87 109/109/114
f 91/91/126 98/98/122 96/96/102 87/87/91
f 89/89/127 91/91/126 87/87/91 84/84/88
f 90/90/125 89/89/127 84/84/88 83/83/87
f 60/60/123 59/59/128 62/62/69 61/61/68
