# Blender v2.82 (sub 7) OBJ File: ''
# www.blender.org
o Cube
v 1.000000 2.000000 -1.000000
v 1.000000 0.000000 -1.000000
v 1.000000 2.000000 1.000000
v 1.000000 0.000000 1.000000
v -1.000000 2.000000 -1.000000
v -1.000000 0.000000 -1.000000
v -1.000000 2.000000 1.000000
v -1.000000 0.000000 1.000000
vt 1.000413 0.666901
vt 0.756971 0.665757
vt 0.757216 0.334563
vt 1.000127 0.333981
vt 0.000488 0.666183
vt 0.250060 0.666758
vt 0.251283 0.334560
vt 0.000488 0.334464
vt 0.756971 0.665757
vt 0.499461 0.666613
vt 0.499527 0.335403
vt 0.757216 0.334563
vt 0.499461 0.666613
vt 0.499527 0.335403
vt 0.499648 0.999299
vt 0.499461 0.666613
vt 0.250060 0.666758
vt 0.250883 0.999723
vt 0.251283 0.334560
vt 0.250765 0.000559
vt 0.499642 0.001096
vn 0.0000 0.0000 -1.0000
vn 1.0000 0.0000 0.0000
vn -1.0000 0.0000 0.0000
vn 0.0000 0.0000 1.0000
vn 0.0000 1.0000 0.0000
vn 0.0000 -1.0000 0.0000
s off
f 4/1/1 8/2/1 7/3/1 3/4/1
f 8/5/2 6/6/2 5/7/2 7/8/2
f 2/9/3 4/10/3 3/11/3 1/12/3
f 6/6/4 2/13/4 1/14/4 5/7/4
f 6/15/5 8/16/5 4/17/5 2/18/5
f 3/11/6 7/19/6 5/20/6 1/21/6
